# xmcd
#
# Track frame offsets:
#	150
#	21390
#	40467
#	60697
#	85656
#	101869
#	116633
#	135393
#	160469
#	179355
#	199223
#	238037
#
# Disc length: 3454 seconds
#
# Revision: 0
# Processed by: cddbd v1.5.2PL0 Copyright (c) Steve Scherf et al.
# Submitted via: EasyCDDAExtractor 16.0.4.1
#
DISCID=a90d7c0c
DTITLE=EtnoSaraj
DYEAR=2011
DGENRE=Traditional
TTITLE0=Pedeseta
TTITLE1=Meki Banja
TTITLE2=Gajde Oro
TTITLE3=Azra
TTITLE4=Kad Padne Mrak
TTITLE5=Dajcovo Horo
TTITLE6=Moj Behare
TTITLE7=Vranjanka Kolo
TTITLE8=Pilem Pilem
TTITLE9=Caj Sukarije
TTITLE10=Lijepi li Mostarski Ducani
TTITLE11=Djelem Djelem
EXTD=
EXTT0=
EXTT1=
EXTT2=
EXTT3=
EXTT4=
EXTT5=
EXTT6=
EXTT7=
EXTT8=
EXTT9=
EXTT10=
EXTT11=
PLAYORDER=
